# xmcd
#
# Track frame offsets:
# 150
# 11964
# 24938
# 37135
# 50956
# 61658
# 75818
# 84927
# 95435
# 110476
#
# Disc length: 1635 seconds
#
# Revision: 2
# Processed by: cddbd v1.5.1PL0 Copyright (c) Steve Scherf et al.
# Submitted via: Axialis_AX_CDPlayer 2.6
#
DISCID=7106610a
DTITLE=Various Artist - The 101 Greatest Country Hits Vol 7:  Country Night
DTITLE=s
DYEAR=1900
DGENRE=
TTITLE0=Don't It Make My Brown Eyes Blue
TTITLE1=In The Misty Moonlight
TTITLE2=Right or Wrong
TTITLE3=You've Never Been This Far Before
TTITLE4=Mr. Sandman
TTITLE5=Don't Touch Me
TTITLE6=Let's Think About Living
TTITLE7=Once a Day
TTITLE8=He Stopped Loving Her Today
TTITLE9=Satin Sheets
EXTD=
EXTT0=CRYSTAL GAYLE
EXTT1=JERRY WALLACE
EXTT2=WANDA JACKSON
EXTT3=CONWAY TWITTY
EXTT4=EMMYLOU HARRIS
EXTT5=JEANNIE SEELY
EXTT6=BOB LUMAN
EXTT7=CONNIE SMITH
EXTT8=GEORGE JONES  
EXTT9=JEANNE PRUETT
PLAYORDER=
